<svg width="22" height="31" viewBox="0 0 22 31" fill="none" xmlns="http://www.w3.org/2000/svg">
<path d="M12.2141 2C12.2141 1.32945 11.6706 0.785859 11 0.785859C10.3294 0.785859 9.78586 1.32945 9.78586 2H12.2141ZM10.1415 21.6085C10.6156 22.0827 11.3844 22.0827 11.8585 21.6085L19.5853 13.8818C20.0594 13.4076 20.0594 12.6389 19.5853 12.1647C19.1111 11.6906 18.3424 11.6906 17.8682 12.1647L11 19.0329L4.13178 12.1647C3.65763 11.6906 2.88888 11.6906 2.41473 12.1647C1.94058 12.6389 1.94058 13.4076 2.41473 13.8818L10.1415 21.6085ZM11 2H9.78586L9.78586 20.75H11H12.2141L12.2141 2H11Z" fill="black"/>
<path d="M2 21L11 29.25L20 21" stroke="black" stroke-width="2.25" stroke-linecap="round" stroke-linejoin="round"/>
</svg>
