<svg width="32" height="35" viewBox="0 0 32 35" fill="none" xmlns="http://www.w3.org/2000/svg">
<path d="M21.991 3.47051C22.1901 3.50288 22.2679 3.48045 22.3412 3.50831C26.6968 6.43917 29.4612 10.4731 30.1628 15.795C30.3434 17.1383 30.1668 18.5191 29.6904 19.864C28.6939 22.754 26.0679 24.6775 23.0553 24.7459C21.485 24.7904 19.9902 24.5602 18.7085 23.6566C18.6743 22.9239 18.6653 22.1921 18.5762 21.5079C18.4254 20.3927 17.9288 19.4669 16.9469 18.8767C16.2305 18.4222 15.4751 18.3951 15.0355 18.7829C14.4585 19.2918 14.3943 19.9957 14.6688 20.5857C15.0487 21.4065 15.5338 22.1806 16.0487 22.9053C16.3851 23.3714 16.8543 23.7665 17.2731 24.1599C16.5857 26.9854 13.7813 28.0953 10.6661 26.798C10.6021 26.3921 10.5403 25.9611 10.4511 25.5544C10.0829 24.053 9.25451 22.8883 7.79188 22.3061C7.23109 22.0842 6.60845 21.9862 6.05666 22.496C5.64224 22.8847 5.57799 23.5886 5.91663 24.307C6.47036 25.4367 7.38126 26.2513 8.37688 26.968C8.73393 27.2078 9.09099 27.4477 9.45034 27.6623C8.54517 32.0437 4.30731 35.0191 0.59016 33.1201C0.585511 33.4478 0.535088 33.7234 0.62204 33.8779C0.731879 34.0584 0.999684 34.1689 1.22172 34.2273C3.32534 34.7064 5.33753 34.5264 7.11652 33.0265C8.45592 31.9144 9.41538 30.5364 10.1162 28.9474C10.2124 28.7238 10.3086 28.5003 10.43 28.2776C10.4323 28.2525 10.4849 28.2292 10.5925 28.1574C10.8168 28.1906 11.0938 28.2006 11.3662 28.2608C14.6922 28.9099 16.5374 28.0682 18.3854 24.9818C18.6784 25.0932 19.0218 25.2064 19.3377 25.3438C21.2169 26.0671 23.1512 26.187 25.1749 25.6039C28.4692 24.6629 30.7841 21.9968 31.3274 18.5356C31.6254 16.6546 31.4632 14.8328 30.944 13.0486C29.6699 8.74027 27.2556 5.29901 23.376 2.96535C23.186 2.83242 22.9686 2.72372 22.7786 2.59079C22.7557 2.56475 22.7351 2.51356 22.6734 2.36001C23.5479 2.18963 24.3468 2.29399 25.1479 2.37321C25.9262 2.42638 26.7251 2.53073 27.5767 2.61176C27.5608 1.95541 27.2312 1.69135 26.8169 1.52514C26.3271 1.35621 25.8418 1.13701 25.3405 1.09379C23.9853 0.994677 22.6027 0.919803 21.2109 0.94549C20.1213 0.982027 19.7663 1.54939 20.1645 2.44647C21.027 4.3439 21.9148 6.24223 22.8026 8.14056C22.9513 8.44856 23.155 8.7081 23.3999 9.07C23.9288 8.53411 23.764 8.12464 23.6222 7.74121C23.0411 6.35834 22.5355 4.97817 21.991 3.47051ZM6.74323 23.2773C8.46003 23.566 9.44182 24.711 9.37509 26.2724C8.28563 25.4766 7.23965 24.7581 6.74323 23.2773ZM15.6099 19.6863C17.0634 20.0916 17.6767 21.1225 17.3856 22.6506C16.5022 21.8118 15.7401 21.0277 15.6099 19.6863Z" fill="black" fill-opacity="0.36"/>
</svg>
