<svg width="38" height="27" viewBox="0 0 38 27" fill="none" xmlns="http://www.w3.org/2000/svg">
<path d="M19.0029 0.198242C33.0031 0.198242 38.4002 9.22213 37.625 15.1953C36.8499 21.1662 29.9545 26.3017 19.3613 26.3018C14.0732 26.3018 9.49097 25.0335 6.13965 23.0078C2.89128 21.0443 0.814523 18.3798 0.339844 15.4775L0.298828 15.1963C-0.286208 10.5951 1.73796 6.85596 5.23535 4.25684C8.73862 1.65336 13.7175 0.198309 19.0029 0.198242Z" fill="white" stroke="black" stroke-width="0.397059"/>
<path d="M33.8859 13.5C33.8859 21 28.1754 23.5 19.043 23.5C10.3077 23.5 1.88588 21 4.48093 10.3627C6.38588 5.5 10.8339 3.5 19.043 3.5C27.2522 3.5 33.8859 6.84139 33.8859 13.5Z" fill="black"/>
<path d="M13.9133 11.4122C14.6913 11.3984 15.4413 11.7205 16.3216 12.3449L16.4994 12.4737L16.5225 12.4925C16.6319 12.592 16.6502 12.7603 16.5604 12.8817C16.4705 13.0032 16.3043 13.0348 16.1771 12.9592L16.1523 12.9427L15.9825 12.8196C15.1469 12.2273 14.5212 11.9852 13.9236 11.9958C13.2801 12.0072 12.6067 12.3119 11.6758 12.949C11.5428 13.0399 11.3613 13.0059 11.2703 12.8729C11.1794 12.7399 11.2134 12.5584 11.3464 12.4674C12.2956 11.8178 13.0896 11.4268 13.9133 11.4122Z" fill="white"/>
<path d="M24.564 11.4122C25.342 11.3984 26.092 11.7205 26.9722 12.3449L27.15 12.4737L27.1731 12.4925C27.2826 12.592 27.3009 12.7603 27.211 12.8817C27.1211 13.0032 26.9549 13.0348 26.8277 12.9592L26.8029 12.9427L26.6331 12.8196C25.7975 12.2273 25.1719 11.9852 24.5743 11.9958C23.9307 12.0072 23.2573 12.3119 22.3265 12.949C22.1935 13.0399 22.012 13.0059 21.921 12.8729C21.83 12.7399 21.8641 12.5584 21.997 12.4674C22.9462 11.8178 23.7402 11.4268 24.564 11.4122Z" fill="white"/>
<path d="M17.2231 17.5901C17.2231 17.9323 16.9457 18.2096 16.6035 18.2096C16.2614 18.2096 15.984 17.9323 15.984 17.5901C15.984 17.248 16.2614 16.9706 16.6035 16.9706C16.9457 16.9706 17.2231 17.248 17.2231 17.5901Z" fill="white"/>
<path d="M19.7013 17.5901C19.7013 17.9323 19.424 18.2096 19.0818 18.2096C18.7397 18.2096 18.4623 17.9323 18.4623 17.5901C18.4623 17.248 18.7397 16.9706 19.0818 16.9706C19.424 16.9706 19.7013 17.248 19.7013 17.5901Z" fill="white"/>
<path d="M22.1792 17.5901C22.1792 17.9323 21.9019 18.2096 21.5597 18.2096C21.2176 18.2096 20.9402 17.9323 20.9402 17.5901C20.9402 17.248 21.2176 16.9706 21.5597 16.9706C21.9019 16.9706 22.1792 17.248 22.1792 17.5901Z" fill="white"/>
</svg>
