<svg width="86" height="42" viewBox="0 0 86 42" fill="none" xmlns="http://www.w3.org/2000/svg">
<path d="M3.07453 39V36.4666L0.0737888 30.8832H2.18907L3.9354 34.8678H3.99689L5.73093 30.8832H7.83391L4.85776 36.4543V39H3.07453ZM10.8248 39.1722C10.1771 39.1722 9.60315 39.0451 9.10302 38.7909C8.6111 38.5286 8.22576 38.1473 7.947 37.6472C7.66824 37.1389 7.52886 36.5076 7.52886 35.7533C7.52886 34.999 7.66824 34.3718 7.947 33.8717C8.23396 33.3716 8.6234 32.9985 9.11532 32.7525C9.61545 32.4984 10.1812 32.3713 10.8125 32.3713C11.4602 32.3713 12.03 32.4984 12.5219 32.7525C13.022 33.0067 13.4115 33.3879 13.6902 33.8963C13.9772 34.3964 14.1207 35.0236 14.1207 35.7779C14.1207 36.5404 13.9772 37.1758 13.6902 37.6841C13.4033 38.1842 13.0097 38.5573 12.5096 38.8032C12.0095 39.0492 11.4479 39.1722 10.8248 39.1722ZM10.8863 37.8563C11.206 37.8563 11.4725 37.7825 11.6856 37.6349C11.907 37.4873 12.071 37.266 12.1776 36.9708C12.2923 36.6675 12.3497 36.3026 12.3497 35.8763C12.3497 35.4253 12.2882 35.0441 12.1653 34.7325C12.0505 34.4128 11.8783 34.1709 11.6487 34.007C11.4192 33.8348 11.1281 33.7487 10.7756 33.7487C10.464 33.7487 10.1976 33.8225 9.97619 33.9701C9.75483 34.1094 9.58675 34.3308 9.47197 34.6342C9.35719 34.9293 9.29979 35.2942 9.29979 35.7287C9.29979 36.4256 9.43917 36.9544 9.71793 37.3152C9.99669 37.6759 10.3861 37.8563 10.8863 37.8563ZM17.5808 39.1722C16.8265 39.1722 16.2567 38.918 15.8713 38.4097C15.4942 37.8932 15.3056 37.1102 15.3056 36.0607V32.5435H17.0888V35.8394C17.0888 36.4707 17.1831 36.9421 17.3717 37.2537C17.5603 37.557 17.8472 37.7087 18.2326 37.7087C18.4621 37.7087 18.663 37.6513 18.8352 37.5365C19.0073 37.4217 19.1508 37.2619 19.2656 37.0569C19.3886 36.8519 19.4829 36.6142 19.5485 36.3436C19.6141 36.0648 19.651 35.7656 19.6592 35.4458V32.5435H21.4301V36.3682V39H20.0035L19.9912 36.9954H19.7575C19.6428 37.5037 19.4911 37.9178 19.3025 38.2375C19.1139 38.5573 18.8803 38.795 18.6015 38.9508C18.3228 39.0984 17.9825 39.1722 17.5808 39.1722ZM23.0783 39V35.8886V32.5435H24.5418V34.7325H24.7878C24.8534 34.1914 24.964 33.7487 25.1198 33.4043C25.2756 33.06 25.497 32.8058 25.7839 32.6419C26.0791 32.4779 26.4439 32.3959 26.8784 32.3959C26.944 32.3959 27.0178 32.4 27.0998 32.4082C27.19 32.4082 27.2925 32.4205 27.4073 32.4451L27.3335 34.3144C27.2105 34.257 27.0752 34.2201 26.9276 34.2037C26.7801 34.1791 26.6489 34.1668 26.5341 34.1668C26.2143 34.1668 25.9397 34.2406 25.7101 34.3882C25.4806 34.5276 25.292 34.7366 25.1444 35.0154C25.005 35.286 24.9066 35.618 24.8493 36.0116V39H23.0783ZM28.5088 39V30.8832H31.8047C32.2474 30.8832 32.6492 30.9201 33.0099 30.9939C33.3707 31.0595 33.6904 31.1579 33.9692 31.2891C34.2479 31.4202 34.4816 31.5842 34.6702 31.781C34.867 31.9696 35.0145 32.1909 35.1129 32.4451C35.2113 32.6911 35.2605 32.9657 35.2605 33.2691C35.2605 33.556 35.2154 33.8184 35.1252 34.0561C35.035 34.2857 34.8997 34.4866 34.7194 34.6588C34.539 34.8309 34.3135 34.9744 34.043 35.0892C33.7806 35.1958 33.4691 35.2696 33.1083 35.3106V35.495C33.5265 35.536 33.8585 35.6344 34.1045 35.7902C34.3504 35.9378 34.5431 36.1386 34.6825 36.3928C34.8301 36.647 34.9571 36.9626 35.0637 37.3398L35.5556 39H33.6002L33.219 37.4627C33.1452 37.1348 33.0386 36.8806 32.8992 36.7002C32.7599 36.5117 32.5836 36.3805 32.3704 36.3067C32.1573 36.2247 31.899 36.1837 31.5956 36.1837H30.2797V39H28.5088ZM30.2797 34.8555H31.6817C32.2392 34.8555 32.6697 34.7489 32.973 34.5358C33.2764 34.3226 33.4281 33.9906 33.4281 33.5396C33.4281 33.0969 33.2846 32.773 32.9976 32.5681C32.7189 32.3549 32.2966 32.2483 31.7309 32.2483H30.2797V34.8555ZM39.7704 39.1722C39.2374 39.1722 38.7619 39.0984 38.3438 38.9508C37.9338 38.8032 37.5813 38.5901 37.2861 38.3113C36.9992 38.0325 36.7778 37.6923 36.622 37.2906C36.4745 36.8806 36.4007 36.4133 36.4007 35.8886C36.4007 35.3802 36.4745 34.9129 36.622 34.4866C36.7696 34.052 36.9828 33.679 37.2615 33.3675C37.5403 33.0477 37.8805 32.8017 38.2823 32.6296C38.684 32.4574 39.139 32.3713 39.6474 32.3713C40.1393 32.3713 40.5738 32.4533 40.951 32.6173C41.3363 32.773 41.6561 33.0108 41.9102 33.3306C42.1726 33.6503 42.3653 34.0439 42.4882 34.5112C42.6112 34.9703 42.6563 35.5032 42.6235 36.1099L37.5567 36.1468V35.1753L41.6028 35.1384L40.9756 35.6303C41.033 35.1958 41.0043 34.8391 40.8895 34.5604C40.7747 34.2816 40.6066 34.0766 40.3853 33.9455C40.1639 33.8143 39.922 33.7487 39.6597 33.7487C39.3481 33.7487 39.0735 33.8307 38.8357 33.9947C38.5979 34.1586 38.4135 34.4005 38.2823 34.7202C38.1511 35.0318 38.0855 35.4089 38.0855 35.8517C38.0855 36.5486 38.2372 37.061 38.5405 37.3889C38.8521 37.7169 39.2579 37.8809 39.7581 37.8809C39.9958 37.8809 40.1926 37.8522 40.3484 37.7948C40.5041 37.7292 40.6353 37.6472 40.7419 37.5488C40.8485 37.4504 40.9305 37.3398 40.9879 37.2168C41.0535 37.0938 41.1027 36.9708 41.1354 36.8478L42.6727 37.1922C42.6071 37.4955 42.5005 37.7702 42.353 38.0161C42.2054 38.2539 42.0127 38.4589 41.775 38.6311C41.5372 38.8032 41.2502 38.9344 40.9141 39.0246C40.5861 39.123 40.2049 39.1722 39.7704 39.1722ZM43.9275 41.0661V35.8394V32.5435H45.391V34.3267L45.6124 34.3513C45.6943 33.9168 45.8255 33.5519 46.0059 33.2568C46.1945 32.9616 46.4363 32.7402 46.7315 32.5927C47.0266 32.4451 47.3669 32.3713 47.7522 32.3713C48.3261 32.3713 48.8181 32.5148 49.228 32.8017C49.6379 33.0805 49.9495 33.4781 50.1627 33.9947C50.384 34.503 50.4947 35.1056 50.4947 35.8025C50.4947 36.442 50.3963 37.0159 50.1996 37.5242C50.011 38.0325 49.7199 38.4343 49.3264 38.7294C48.941 39.0246 48.4532 39.1722 47.8629 39.1722C47.453 39.1722 47.1045 39.0943 46.8176 38.9385C46.5388 38.7827 46.3051 38.5655 46.1166 38.2867C45.928 37.9998 45.7722 37.6595 45.6492 37.266H45.4156C45.4648 37.4873 45.5099 37.7128 45.5509 37.9424C45.5919 38.1719 45.6246 38.3974 45.6492 38.6188C45.682 38.8319 45.6984 39.041 45.6984 39.246V41.0661H43.9275ZM47.248 37.7579C47.5432 37.7579 47.7932 37.6759 47.9982 37.5119C48.2032 37.348 48.3589 37.1184 48.4655 36.8232C48.5803 36.5281 48.6377 36.1919 48.6377 35.8148C48.6377 35.4048 48.5803 35.0564 48.4655 34.7694C48.3507 34.4743 48.1868 34.2447 47.9736 34.0807C47.7604 33.9168 47.5063 33.8348 47.2111 33.8348C46.9487 33.8348 46.7192 33.8922 46.5224 34.007C46.3338 34.1217 46.1781 34.2734 46.0551 34.462C45.9321 34.6506 45.8419 34.8555 45.7845 35.0769C45.7271 35.2901 45.6984 35.495 45.6984 35.6918V35.9255C45.6984 36.0812 45.7189 36.2452 45.7599 36.4174C45.8009 36.5814 45.8624 36.7453 45.9444 36.9093C46.0346 37.0651 46.1412 37.2086 46.2642 37.3398C46.3871 37.4627 46.5306 37.5652 46.6946 37.6472C46.8668 37.721 47.0512 37.7579 47.248 37.7579ZM51.794 39V30.2068H53.528V39H51.794ZM57.5921 41.2383C57.2641 41.2383 56.928 41.2055 56.5836 41.1399C56.2393 41.0825 55.9154 40.9923 55.6121 40.8693C55.3169 40.7463 55.0669 40.5865 54.8619 40.3897L55.3661 38.877C55.6285 39.1476 55.9564 39.3484 56.35 39.4796C56.7435 39.619 57.133 39.6887 57.5183 39.6887C57.9528 39.6887 58.3136 39.5985 58.6005 39.4181C58.8957 39.246 59.1171 38.9754 59.2646 38.6065C59.4204 38.2375 59.5106 37.7784 59.5352 37.2291L59.609 36.1222H59.3261C59.2523 36.6634 59.1212 37.1061 58.9326 37.4504C58.744 37.7866 58.5062 38.0366 58.2193 38.2006C57.9405 38.3564 57.6126 38.4343 57.2354 38.4343C56.7599 38.4343 56.3623 38.3154 56.0425 38.0776C55.731 37.8399 55.4932 37.4832 55.3292 37.0077C55.1653 36.5322 55.0833 35.946 55.0833 35.2491V32.5435H56.8665V34.8186C56.8665 35.5811 56.9485 36.1304 57.1125 36.4666C57.2846 36.8027 57.5511 36.9708 57.9118 36.9708C58.1004 36.9708 58.2726 36.9216 58.4284 36.8232C58.5841 36.7166 58.7153 36.565 58.8219 36.3682C58.9285 36.1714 59.0105 35.9337 59.0679 35.6549C59.1334 35.3679 59.1703 35.0441 59.1785 34.6834V32.5435H60.9495V37.3029C60.9495 37.8194 60.9044 38.2908 60.8142 38.7171C60.724 39.1353 60.5887 39.5001 60.4084 39.8117C60.228 40.1314 60.0025 40.3979 59.732 40.6111C59.4696 40.8242 59.158 40.98 58.7973 41.0784C58.4448 41.185 58.043 41.2383 57.5921 41.2383ZM65.8628 39.1722C65.1987 39.1722 64.6002 39.0205 64.0672 38.7171C63.5343 38.4056 63.1121 37.9465 62.8005 37.3398C62.4972 36.7248 62.3455 35.9542 62.3455 35.0277C62.3455 34.3472 62.4316 33.7446 62.6038 33.2199C62.7841 32.687 63.0465 32.236 63.3908 31.8671C63.7352 31.4899 64.1574 31.203 64.6576 31.0062C65.1577 30.8094 65.7357 30.7111 66.3916 30.7111C66.8835 30.7111 67.3304 30.7684 67.7321 30.8832C68.1338 30.998 68.4823 31.162 68.7774 31.3752C69.0726 31.5883 69.3022 31.8425 69.4661 32.1376C69.6383 32.4328 69.7326 32.7689 69.749 33.1461L68.0764 33.6749C68.06 33.3306 67.9699 33.0477 67.8059 32.8263C67.6501 32.605 67.441 32.441 67.1787 32.3344C66.9163 32.2196 66.6294 32.1622 66.3178 32.1622C65.8751 32.1622 65.4938 32.2647 65.1741 32.4697C64.8625 32.6665 64.6207 32.9739 64.4485 33.392C64.2845 33.802 64.2025 34.3226 64.2025 34.9539C64.2025 35.4376 64.2517 35.8558 64.3501 36.2083C64.4485 36.5527 64.5879 36.8396 64.7682 37.0692C64.9568 37.2988 65.1823 37.4709 65.4446 37.5857C65.7152 37.6923 66.0185 37.7456 66.3547 37.7456C66.7236 37.7456 67.0393 37.6882 67.3017 37.5734C67.5722 37.4504 67.7854 37.266 67.9412 37.02C68.1051 36.7658 68.1953 36.4461 68.2117 36.0607H66.6622V34.7817H69.9581V36.2698V39H68.7282L68.7528 36.9216H68.5315C68.4003 37.4135 68.224 37.8276 68.0026 38.1637C67.7813 38.4917 67.4943 38.7417 67.1418 38.9139C66.7974 39.0861 66.3711 39.1722 65.8628 39.1722ZM73.631 39.1722C72.8767 39.1722 72.3069 38.918 71.9215 38.4097C71.5444 37.8932 71.3558 37.1102 71.3558 36.0607V32.5435H73.139V35.8394C73.139 36.4707 73.2333 36.9421 73.4219 37.2537C73.6105 37.557 73.8974 37.7087 74.2828 37.7087C74.5123 37.7087 74.7132 37.6513 74.8854 37.5365C75.0576 37.4217 75.201 37.2619 75.3158 37.0569C75.4388 36.8519 75.5331 36.6142 75.5987 36.3436C75.6643 36.0648 75.7012 35.7656 75.7094 35.4458V32.5435H77.4803V36.3682V39H76.0537L76.0414 36.9954H75.8077C75.693 37.5037 75.5413 37.9178 75.3527 38.2375C75.1641 38.5573 74.9305 38.795 74.6517 38.9508C74.373 39.0984 74.0327 39.1722 73.631 39.1722ZM81.5398 41.2383C81.2119 41.2383 80.8757 41.2055 80.5314 41.1399C80.187 41.0825 79.8632 40.9923 79.5598 40.8693C79.2647 40.7463 79.0146 40.5865 78.8096 40.3897L79.3139 38.877C79.5762 39.1476 79.9042 39.3484 80.2977 39.4796C80.6912 39.619 81.0807 39.6887 81.466 39.6887C81.9006 39.6887 82.2613 39.5985 82.5483 39.4181C82.8434 39.246 83.0648 38.9754 83.2124 38.6065C83.3681 38.2375 83.4583 37.7784 83.4829 37.2291L83.5567 36.1222H83.2739C83.2001 36.6634 83.0689 37.1061 82.8803 37.4504C82.6917 37.7866 82.454 38.0366 82.167 38.2006C81.8883 38.3564 81.5603 38.4343 81.1832 38.4343C80.7076 38.4343 80.31 38.3154 79.9903 38.0776C79.6787 37.8399 79.4409 37.4832 79.277 37.0077C79.113 36.5322 79.031 35.946 79.031 35.2491V32.5435H80.8142V34.8186C80.8142 35.5811 80.8962 36.1304 81.0602 36.4666C81.2324 36.8027 81.4988 36.9708 81.8596 36.9708C82.0481 36.9708 82.2203 36.9216 82.3761 36.8232C82.5319 36.7166 82.6631 36.565 82.7696 36.3682C82.8762 36.1714 82.9582 35.9337 83.0156 35.6549C83.0812 35.3679 83.1181 35.0441 83.1263 34.6834V32.5435H84.8972V37.3029C84.8972 37.8194 84.8521 38.2908 84.7619 38.7171C84.6717 39.1353 84.5365 39.5001 84.3561 39.8117C84.1757 40.1314 83.9503 40.3979 83.6797 40.6111C83.4173 40.8242 83.1058 40.98 82.745 41.0784C82.3925 41.185 81.9908 41.2383 81.5398 41.2383Z" fill="black"/>
<path d="M43.0029 0.198242C56.7843 0.198242 62.2298 8.9423 61.6572 14.9131L61.625 15.1953C60.8499 21.1662 53.9545 26.3017 43.3613 26.3018C38.0732 26.3018 33.491 25.0335 30.1396 23.0078C26.8913 21.0443 24.8145 18.3798 24.3398 15.4775L24.2988 15.1963C23.7138 10.5951 25.738 6.85596 29.2354 4.25684C32.7386 1.65336 37.7175 0.198309 43.0029 0.198242Z" fill="white" stroke="black" stroke-width="0.397059"/>
<path d="M57.8859 13.5C57.8859 21 52.1754 23.5 43.043 23.5C34.3077 23.5 25.8859 21 28.4809 10.3627C30.3859 5.5 34.8339 3.5 43.043 3.5C51.2522 3.5 57.8859 6.84139 57.8859 13.5Z" fill="black"/>
<path d="M37.9133 11.4122C38.6913 11.3984 39.4413 11.7205 40.3216 12.3449L40.4994 12.4737L40.5225 12.4925C40.6319 12.592 40.6502 12.7603 40.5604 12.8817C40.4705 13.0032 40.3043 13.0348 40.1771 12.9592L40.1523 12.9427L39.9825 12.8196C39.1469 12.2273 38.5212 11.9852 37.9236 11.9958C37.2801 12.0072 36.6067 12.3119 35.6758 12.949C35.5428 13.0399 35.3613 13.0059 35.2703 12.8729C35.1794 12.7399 35.2134 12.5584 35.3464 12.4674C36.2956 11.8178 37.0896 11.4268 37.9133 11.4122Z" fill="white"/>
<path d="M48.564 11.4122C49.342 11.3984 50.092 11.7205 50.9722 12.3449L51.15 12.4737L51.1731 12.4925C51.2826 12.592 51.3009 12.7603 51.211 12.8817C51.1211 13.0032 50.9549 13.0348 50.8277 12.9592L50.8029 12.9427L50.6331 12.8196C49.7975 12.2273 49.1719 11.9852 48.5743 11.9958C47.9307 12.0072 47.2573 12.3119 46.3265 12.949C46.1935 13.0399 46.012 13.0059 45.921 12.8729C45.83 12.7399 45.8641 12.5584 45.997 12.4674C46.9462 11.8178 47.7402 11.4268 48.564 11.4122Z" fill="white"/>
<path d="M41.2231 17.5901C41.2231 17.9323 40.9457 18.2096 40.6035 18.2096C40.2614 18.2096 39.984 17.9323 39.984 17.5901C39.984 17.248 40.2614 16.9706 40.6035 16.9706C40.9457 16.9706 41.2231 17.248 41.2231 17.5901Z" fill="white"/>
<path d="M43.7013 17.5901C43.7013 17.9323 43.424 18.2096 43.0818 18.2096C42.7397 18.2096 42.4623 17.9323 42.4623 17.5901C42.4623 17.248 42.7397 16.9706 43.0818 16.9706C43.424 16.9706 43.7013 17.248 43.7013 17.5901Z" fill="white"/>
<path d="M46.1792 17.5901C46.1792 17.9323 45.9019 18.2096 45.5597 18.2096C45.2176 18.2096 44.9402 17.9323 44.9402 17.5901C44.9402 17.248 45.2176 16.9706 45.5597 16.9706C45.9019 16.9706 46.1792 17.248 46.1792 17.5901Z" fill="white"/>
</svg>
